<svg xmlns="http://www.w3.org/2000/svg" viewBox="0 0 120 247"><defs><style>.cls-1{fill:#fff;}</style></defs><title>Element 1</title><g id="Ebene_2" data-name="Ebene 2"><g id="Ebene_1-2" data-name="Ebene 1"><polygon class="cls-1" points="0.5 246.5 0.5 200.5 30.5 200.5 30.5 112.5 0.5 112.5 0.5 66.5 89.5 66.5 89.5 200.5 119.5 200.5 119.5 246.5 0.5 246.5"/><path d="M89,67V201h30v45H1V201H31V112H1V67H89m1-1H0v47H30v87H0v47H120V200H90V66Z"/><circle class="cls-1" cx="59" cy="30" r="29.5"/><path d="M59,1A29,29,0,1,1,30,30,29,29,0,0,1,59,1m0-1A30,30,0,1,0,89,30,30,30,0,0,0,59,0Z"/></g></g></svg>